<svg xmlns="http://www.w3.org/2000/svg" viewBox="0 0 600 600"><defs><style>.cls-1{isolation:isolate;}.cls-2{fill:#f44336;}.cls-3{fill:#fff;}.cls-4{opacity:0.05;mix-blend-mode:multiply;}.cls-5{fill:#565656;}</style></defs><title>ic_launcherArtboard 1</title><g class="cls-1"><g id="Layer_1" data-name="Layer 1"><rect class="cls-2" x="95.65" y="95.65" width="408.71" height="408.71" transform="translate(-124.26 300) rotate(-45)"/><rect class="cls-3" x="242.67" y="243.19" width="114.67" height="218.67"/><rect class="cls-3" x="300.63" y="102.7" width="114.67" height="278.6" transform="translate(-66.28 324) rotate(-45)"/><rect class="cls-3" x="184.71" y="102.7" width="114.67" height="278.6" transform="translate(242.01 -100.27) rotate(45)"/><polygon class="cls-4" points="300 589 11 300 300 11 300 589"/><polygon class="cls-5" points="11 141 11 11 141 11 11 141"/><polygon class="cls-5" points="141 591.86 11 591.86 11 461.86 141 591.86"/><polygon class="cls-5" points="591.86 461.86 591.86 591.86 461.86 591.86 591.86 461.86"/><polygon class="cls-5" points="461.86 11 591.86 11 591.86 141 461.86 11"/></g></g></svg>